<svg id="visual" viewBox="0 0 500 80" width="500" height="80" xmlns="http://www.w3.org/2000/svg" xmlns:xlink="http://www.w3.org/1999/xlink" version="1.1"><path d="M0 32L16.7 33C33.3 34 66.7 36 100 36.8C133.3 37.7 166.7 37.3 200 36C233.3 34.7 266.7 32.3 300 29.5C333.3 26.7 366.7 23.3 400 24.2C433.3 25 466.7 30 483.3 32.5L500 35L500 81L483.3 81C466.7 81 433.3 81 400 81C366.7 81 333.3 81 300 81C266.7 81 233.3 81 200 81C166.7 81 133.3 81 100 81C66.7 81 33.3 81 16.7 81L0 81Z" fill="#336dcf"></path><path d="M0 35L16.7 35.2C33.3 35.3 66.7 35.7 100 38.8C133.3 42 166.7 48 200 48.2C233.3 48.3 266.7 42.7 300 41C333.3 39.3 366.7 41.7 400 44.3C433.3 47 466.7 50 483.3 51.5L500 53L500 81L483.3 81C466.7 81 433.3 81 400 81C366.7 81 333.3 81 300 81C266.7 81 233.3 81 200 81C166.7 81 133.3 81 100 81C66.7 81 33.3 81 16.7 81L0 81Z" fill="#225bbb"></path><path d="M0 61L16.7 59.2C33.3 57.3 66.7 53.7 100 52.3C133.3 51 166.7 52 200 54C233.3 56 266.7 59 300 59.2C333.3 59.3 366.7 56.7 400 55.7C433.3 54.7 466.7 55.3 483.3 55.7L500 56L500 81L483.3 81C466.7 81 433.3 81 400 81C366.7 81 333.3 81 300 81C266.7 81 233.3 81 200 81C166.7 81 133.3 81 100 81C66.7 81 33.3 81 16.7 81L0 81Z" fill="#0a49a8"></path></svg>